<svg xmlns="http://www.w3.org/2000/svg" viewBox="0 0 1400 980" width="1400" height="980">
	<style>
		tspan { white-space:pre }
		.shp0 { fill: #0da5ce } 
		.shp1 { fill: none;stroke: #2e547b } 
		.shp2 { fill: #24578c } 
		.shp3 { fill: none;stroke: #2d679b } 
		.shp4 { fill: #fffef5 } 
		.shp5 { fill: #edece6 } 
		.shp6 { fill: #e2e1de } 
		.shp7 { fill: #2a5081 } 
		.shp8 { fill: none;stroke: #0ba4cd } 
		.shp9 { fill: none;stroke: #35527e } 
		.shp10 { fill: #12b3d8 } 
		.shp11 { fill: #039eca } 
		.shp12 { fill: #45d7ff } 
		.shp13 { fill: #15aacc } 
		.shp14 { fill: #0dcbff } 
		.shp15 { fill: none;stroke: #4c2c1c;stroke-dasharray: 5 } 
		.shp16 { fill: #15a4bc } 
		.shp17 { fill: #ffffff } 
		.shp18 { fill: #2c5e84 } 
		.shp19 { fill: #336797 } 
		.shp20 { fill: #4187aa } 
		.shp21 { fill: #e5f4f9 } 
		.shp22 { fill: none;stroke: #2c5e84 } 
		.shp23 { fill: none;stroke: #000000 } 
		.shp24 { fill: #c6966e } 
		.shp25 { fill: #a37657 } 
		.shp26 { fill: #b28562 } 
		.shp27 { fill: #e8c0a3 } 
		.shp28 { fill: #b78662 } 
		.shp29 { fill: #35527e } 
		.shp30 { fill: none;stroke: #6488bc } 
		.shp31 { fill: #0b4177 } 
		.shp32 { fill: #21c7ed } 
		.shp33 { fill: #f4a484 } 
		.shp34 { fill: #26d1ff } 
		.shp35 { fill: #0a468f } 
		.shp36 { fill: #ffb18e } 
		.shp37 { fill: #ffbca1 } 
		.shp38 { fill: #264e81 } 
		.shp39 { fill: #22273f } 
		.shp40 { fill: #f4a07f } 
		.shp41 { fill: #2d3353 } 
		.shp42 { fill: #34517d } 
		.shp43 { fill: #f25555 } 
		.shp44 { fill: #ff6160 } 
		.shp45 { fill: #e55353 } 
		.shp46 { fill: none;stroke: #b23b3b } 
		.shp47 { fill: #ce4949 } 
		.shp48 { fill: #ed8772 } 
		.shp49 { fill: #ffcf61 } 
		.shp50 { fill: #293357 } 
		.shp51 { fill: #e01e1e } 
		.shp52 { fill: #af1e1e } 
		.shp53 { fill: #ffe2ae } 
		.shp54 { fill: #f59179 } 
		.shp55 { fill: #26344f } 
		.shp56 { fill: #ffffea } 
		.shp57 { fill: #ffd278 } 
	</style>
	<g id="BACKGROUND">
	</g>
	<g id="OBJECTS">
		<g id="Layer">
			<path id="Layer" class="shp0" d="M244.14 223.61C244.14 223.61 137.92 274.79 256.61 377.82C256.61 377.82 306.76 377.37 261.13 284.97C254.09 270.7 240.46 251.97 244.14 223.61Z" />
			<path id="Layer" class="shp1" d="M256.61 377.82C256.61 377.82 252.57 345.89 236.1 318.44C219.62 291 220.02 259.34 244.14 223.61" />
			<path id="Layer" class="shp1" d="M277.97 361.84C277.97 361.84 270.6 348.27 247.99 343.94" />
			<path id="Layer" class="shp1" d="M235.27 357.36C235.27 357.36 235.5 340.29 245.5 337.45" />
			<path id="Layer" class="shp1" d="M232.93 312.7C232.93 312.7 261.88 301.82 276.82 324.59" />
			<path id="Layer" class="shp1" d="M216.65 334.02C216.65 334.02 215.03 308.51 229.8 305.68" />
			<path id="Layer" class="shp1" d="M224.98 284.96C224.98 284.96 249.56 267.57 261.13 284.97" />
			<path id="Layer" class="shp1" d="M200.54 290.72C200.54 290.72 211.52 276.39 224.75 277.53" />
			<path id="Layer" class="shp1" d="M228.78 254.28C228.78 254.28 238.86 245.73 247.95 257.71" />
			<path id="Layer" class="shp1" d="M206.98 259.77C206.98 259.77 220.37 243.7 231.03 248.03" />
		</g>
		<path id="Layer" fill-rule="evenodd" class="shp2" d="M194.77 314.1C195.17 312.8 196.66 304.58 198.5 297.01C199.08 297.15 199.65 297.31 200.23 297.44C209.88 299.65 219.73 300.58 229.61 301.41C229.22 311.65 229.39 321.92 229.57 332.17C229.63 335.56 227.85 350.77 230.76 352.51C236.91 356.18 238.61 346 239.73 342.44C243.78 329.53 247.78 316.61 251.8 303.69C252.26 303.76 252.72 303.8 253.17 303.87C261.87 305.18 270.7 307.34 278.78 310.83C276.86 314.79 274.34 318.56 272 322.3C265.5 332.65 259.24 344.42 256.28 356.33C261.88 354.56 281.45 333.02 293.78 319.8C296.14 321.74 298.34 323.86 300.34 326.23C309.96 337.64 313.73 353.73 310.19 368.23C308.99 373.13 306.99 377.87 303.97 381.9C297.32 390.75 286.77 394.98 276.37 397.59C264.31 400.62 260.01 401.95 249.96 409.45C231.93 422.89 208.96 429.77 186.5 427.98C172.92 426.9 159.14 422.43 149.33 413.05C153.24 411.58 157.16 410.11 161.07 408.65C164.54 407.35 168.01 406.04 171.35 404.43C173.46 403.41 175.52 402.27 177.57 401.13C180.49 399.51 183.51 398.01 186.12 396.01C182.07 392.24 166.09 399 160.36 399.95C153.86 401.02 147.3 401.66 140.73 401.95C139.67 400.13 138.67 398.29 137.77 396.4C134.82 390.18 132.68 383.72 131.24 377.12C135.99 377.29 140.74 377.46 145.49 377.64C152.76 377.9 165.35 378.81 170.06 372.1C166.67 369.43 160.68 369.73 156.26 369.26C146.96 368.27 137.82 365.93 129.17 362.39C128.57 353.53 129.04 344.52 130.37 335.55C133.83 336.46 137.31 337.28 140.82 337.98C145.45 338.91 150.19 339.68 154.44 341.75C160.43 344.67 165.88 350.23 172.5 349.41C161.37 343.67 149.04 329.19 141.34 319.5C140.58 318.54 138.3 315.8 135.61 312.44C138.09 304.25 141.13 296.23 144.57 288.54C147.85 281.22 151.58 273.89 157.47 268.45C163.75 280.8 175.66 289.06 188.81 294C190.42 300.87 192.29 307.68 194.77 314.1ZM255.16 390.61C255.8 390.88 256.53 390.76 257.21 390.64C264.61 389.29 271.9 387.38 279.01 384.91L280.9 385.81C282.52 385.79 284.25 385.73 285.61 384.83C286.97 383.94 287.7 381.89 286.65 380.65C285.94 379.81 284.74 379.63 283.65 379.5C278.68 378.95 273.66 378.4 268.7 379.03C263.74 379.65 258.77 381.59 255.42 385.29C254.02 386.84 253.24 389.81 255.16 390.61ZM159.2 307.94C156.07 306.23 152.01 304.64 149.18 306.81C153.45 314.7 159.4 321.68 166.51 327.15L168.78 328.34C171.23 326.82 172.07 323.51 171.53 320.67C170.38 314.67 164.57 310.87 159.2 307.94ZM184.94 382.81C178.95 382.09 172.34 381.5 167.38 384.96C165.93 385.98 164.65 388.08 165.84 389.39C173.7 389.68 181.61 388.81 189.22 386.81L192.05 386.1C190.74 383.72 187.64 383.14 184.94 382.81ZM175.47 419.2C186.84 421.03 198.73 420.65 209.91 417.86C219.73 415.41 224.42 407.32 211.1 410.55C199.23 413.44 187.35 416.32 175.47 419.2Z" />
		<g id="Layer">
			<g id="Layer">
				<path id="Layer" class="shp2" d="M1205.16 264.57C1205.16 264.57 1300.55 347.15 1149.14 420.37C1149.14 420.37 1097.48 405.87 1170.45 323.2C1181.72 310.43 1201.03 294.9 1205.16 264.57Z" />
				<path id="Layer" class="shp3" d="M1149.14 420.37C1149.14 420.37 1162.25 388.51 1186.94 364.78C1211.63 341.04 1220.08 308.23 1205.16 264.58" />
				<path id="Layer" class="shp3" d="M1131.56 397.88C1131.56 397.88 1142.96 385.93 1167.53 387.78" />
				<path id="Layer" class="shp3" d="M1176.91 405.19C1176.91 405.19 1181.45 387.51 1171.91 381.78" />
				<path id="Layer" class="shp3" d="M1191.82 359.72C1191.82 359.72 1164.96 340.39 1143.16 359.73" />
				<path id="Layer" class="shp3" d="M1202.67 386.3C1202.67 386.3 1211.48 360.41 1197.01 353.36" />
				<path id="Layer" class="shp3" d="M1207.79 333.3C1207.79 333.3 1187.27 308.47 1170.45 323.2" />
				<path id="Layer" class="shp3" d="M1231.42 346.09C1231.42 346.09 1224.09 328.21 1210.1 325.69" />
				<path id="Layer" class="shp3" d="M1212.45 300.55C1212.45 300.55 1204.43 288.89 1191.69 298.73" />
				<path id="Layer" class="shp3" d="M1233.43 312.31C1233.43 312.31 1224.09 291.97 1211.87 293.47" />
			</g>
		</g>
		<path id="Layer" fill-rule="evenodd" class="shp0" d="M1279.44 344.78C1294.23 344 1308.85 339.48 1319.09 329.07C1323.28 336.41 1324.7 344.98 1325.67 353.37C1326.68 362.21 1327.19 371.24 1327.06 380.27C1323.29 382.79 1320.13 384.81 1319.05 385.54C1308.23 392.84 1291.22 403.46 1278.2 405.7C1284.59 408.63 1291.85 404.78 1298.8 403.75C1303.73 403.02 1308.74 403.75 1313.7 404.29C1317.45 404.7 1321.21 404.99 1324.98 405.18C1323.46 414.62 1321.07 423.82 1317.64 432.54C1307.81 433.35 1297.87 432.8 1288.21 430.83C1283.61 429.89 1277.68 427.69 1273.43 429.29C1276.02 437.54 1288.98 440.63 1296.37 442.68C1301.2 444.02 1306.04 445.36 1310.87 446.7C1307.32 452.88 1303.11 458.69 1298.16 464.01C1296.65 465.63 1295.06 467.16 1293.42 468.65C1286.9 466.27 1280.51 463.53 1274.32 460.39C1268.86 457.61 1254.93 445.73 1249.66 448.22C1251.65 451.06 1254.21 453.54 1256.63 456.1C1258.33 457.89 1260.03 459.7 1261.83 461.39C1264.68 464.08 1267.76 466.49 1270.83 468.91C1274.3 471.63 1277.76 474.35 1281.23 477.07C1268.38 483.39 1253.1 483.48 1239.1 480.25C1215.95 474.9 1195.03 460.67 1181.18 441.41C1173.46 430.67 1169.57 427.96 1158.4 421.08C1148.77 415.14 1139.51 407.53 1135.65 396.51C1133.89 391.49 1133.39 386.09 1133.74 380.78C1134.8 365.07 1143.72 350.09 1157.02 341.68C1159.78 339.94 1162.68 338.5 1165.67 337.31C1173.85 354.53 1186.68 382.42 1191.74 385.98C1192.56 373.06 1190.01 359.24 1186.78 346.75C1185.61 342.25 1184.27 337.65 1183.6 333.06C1192.85 332.12 1202.41 332.76 1211.57 334.22C1212.05 334.29 1212.53 334.39 1213.01 334.47C1212.94 348.74 1212.84 363.01 1212.81 377.28C1212.8 381.22 1211.27 392 1218.62 390.27C1222.11 389.45 1225.16 373.58 1226.3 370.19C1229.74 359.94 1233.19 349.67 1236.05 339.25C1246.25 341.55 1256.45 343.76 1266.86 344.61C1267.48 344.66 1268.11 344.69 1268.74 344.72C1268.18 352.93 1267.06 361.66 1267.05 363.1C1271.59 357.44 1275.64 351.18 1279.44 344.78ZM1183.39 415.38C1181.2 410.58 1176.82 407.06 1172.03 404.85C1167.25 402.64 1162.02 401.6 1156.85 400.57C1155.71 400.35 1154.44 400.14 1153.46 400.76C1152.01 401.68 1152.1 403.98 1153.18 405.31C1154.26 406.64 1155.98 407.25 1157.6 407.79L1159.79 407.49C1166.15 412.23 1172.88 416.48 1179.89 420.19C1180.53 420.53 1181.23 420.87 1181.95 420.81C1184.15 420.62 1184.3 417.38 1183.39 415.38ZM1288.33 377.11C1286.88 379.79 1286.67 383.38 1288.65 385.7L1291.31 385.22C1300.2 381.99 1308.41 376.86 1315.21 370.28C1313.06 367.19 1308.47 367.51 1304.77 368.23C1298.44 369.46 1291.4 371.44 1288.33 377.11ZM1246.86 436.37L1249.48 437.99C1256.5 442.41 1264.17 445.81 1272.16 448.02C1273.79 447.08 1273.17 444.56 1272.03 443.08C1268.14 438.03 1261.31 436.5 1255.05 435.33C1252.23 434.8 1248.93 434.4 1246.86 436.37ZM1219.91 454.89C1207.55 447.4 1209.69 457.03 1218.78 462.62C1229.13 468.98 1240.98 473.15 1252.99 474.94C1241.96 468.25 1230.94 461.57 1219.91 454.89Z" />
		<path id="Layer" class="shp4" d="M219.41 396.43C219.41 396.43 526.89 230.73 964.55 297.7C1402.21 364.66 1378.45 811.69 1126.54 856.18C874.62 900.67 758.62 765.11 595.54 758C432.45 750.88 338.32 841.26 213.92 796.03C89.52 750.81 -30.98 566.86 219.41 396.43Z" />
		<path id="Layer" class="shp5" d="M398.92 367.75C398.92 367.75 939.29 281.22 1133.64 412.13C1327.98 543.03 1213.33 825.02 945.92 762.02C678.52 699.02 630.73 679.14 482.88 702.58C335.03 726.02 159.97 688.34 164.35 626.95C168.72 565.56 198.04 444.81 398.92 367.75Z" />
		<path id="Layer" class="shp6" d="M631.55 330.61C631.55 330.61 482.88 330.61 398.92 367.75C375.52 378.1 370.64 437.98 489.33 428.26C608.02 418.54 623.02 393.35 668.02 405.19C713.01 417.04 760.15 459.48 815.29 449.01C870.44 438.54 885.12 372.65 861.36 364.43C837.61 356.21 770.16 336.43 631.55 330.61Z" />
		<path id="Layer" class="shp6" d="M548.48 534.89C548.48 534.89 438.59 576.95 397.31 559.24C356.03 541.53 -8.6 637.23 209.71 686.88C428.03 736.52 460.22 679.31 527.37 677.92C594.52 676.52 713.92 574.74 548.48 534.89Z" />
		<g id="Layer">
			<path id="Layer" class="shp7" d="M776.7 339.63C776.7 339.63 676.59 245.33 815.29 188.98C815.29 188.98 848.48 198.51 821.81 264.61C795.14 330.71 780.9 308.85 776.7 339.63Z" />
			<path id="Layer" class="shp8" d="M815.29 188.98C815.29 188.98 755.47 239.47 773.56 336.43" />
			<path id="Layer" class="shp8" d="M829.84 205.25C829.84 205.25 805.32 229.04 791.88 218.67" />
			<path id="Layer" class="shp8" d="M777.75 250.52C777.75 250.52 823.09 260.94 830.31 237.47" />
			<path id="Layer" class="shp8" d="M770.22 296.49C770.22 296.49 803.47 304.72 811.83 286.63" />
			<path id="Layer" class="shp8" d="M742.39 259.09C742.39 259.09 747.69 280.15 770.57 289.03" />
			<path id="Layer" class="shp8" d="M761.28 222.72C761.28 222.72 761.39 247.71 775.5 255.98" />
			<path id="Layer" class="shp8" d="M783.44 205.02C783.44 205.02 777.99 219.41 788.92 223.96" />
		</g>
		<g id="Layer">
			<path id="Layer" class="shp9" d="M849.65 229.93C849.65 229.93 810.21 248.43 783.55 304.93" />
			<path id="Layer" class="shp10" d="M847.3 231.17C847.3 231.17 858.59 209.79 876.13 210.24C876.13 210.25 862.05 231.83 847.3 231.17Z" />
			<path id="Layer" class="shp11" d="M832.67 241.15C832.67 241.15 847.09 224.9 840.95 206.71C840.95 206.71 830.05 224.39 832.67 241.15Z" />
			<path id="Layer" class="shp10" d="M858.09 247.03C858.09 247.03 843.29 233.48 829.7 243.56C829.71 243.56 846.33 254.6 858.09 247.03Z" />
			<path id="Layer" class="shp10" d="M822.79 221.34C822.79 221.34 828.98 235.37 817.24 255.25C817.24 255.25 808.32 240.3 822.79 221.34Z" />
			<path id="Layer" class="shp11" d="M843.97 257.64C843.97 257.64 823.14 246.85 812.07 260.9C812.07 260.9 834.61 268.14 843.97 257.64Z" />
			<path id="Layer" class="shp11" d="M807.06 239.16C807.06 239.16 813.75 251.24 803.95 270.91C803.95 270.92 795.22 261.57 807.06 239.16Z" />
			<path id="Layer" class="shp10" d="M828.62 269.53C828.62 269.53 807.57 261.69 798.28 277.95C798.28 277.95 815.4 283.96 828.62 269.53Z" />
		</g>
		<g id="Layer">
			<path id="Layer" class="shp7" d="M1220.14 655.52C1220.14 655.52 1127.67 553.72 1270.34 508.34C1270.34 508.34 1302.68 520.42 1270.95 584.24C1239.22 648.06 1226.73 625.16 1220.14 655.52Z" />
			<path id="Layer" class="shp8" d="M1270.34 508.34C1270.34 508.34 1206.77 554.02 1217.26 652.09" />
			<path id="Layer" class="shp8" d="M1283.57 525.69C1283.57 525.69 1257.27 547.5 1244.68 536.11" />
			<path id="Layer" class="shp8" d="M1228.12 566.77C1228.12 566.77 1272.51 580.68 1281.53 557.85" />
			<path id="Layer" class="shp8" d="M1217.03 612.01C1217.03 612.01 1249.54 622.8 1259.29 605.42" />
			<path id="Layer" class="shp8" d="M1192.2 572.56C1192.2 572.56 1195.85 593.96 1217.96 604.6" />
			<path id="Layer" class="shp8" d="M1213.86 537.77C1213.86 537.77 1212.03 562.69 1225.45 572.03" />
			<path id="Layer" class="shp8" d="M1237.33 521.85C1237.33 521.85 1230.78 535.77 1241.32 541.15" />
		</g>
		<g id="Layer">
			<path id="Layer" class="shp9" d="M1295.05 587.47C1295.05 587.47 1254.29 602.84 1223.31 657.09" />
			<path id="Layer" class="shp10" d="M1292.62 588.52C1292.62 588.52 1305.53 568.08 1322.98 569.9C1322.98 569.9 1307.27 590.33 1292.62 588.52Z" />
			<path id="Layer" class="shp11" d="M1277.25 597.33C1277.25 597.33 1292.89 582.26 1288.18 563.64C1288.18 563.64 1275.94 580.42 1277.25 597.33Z" />
			<path id="Layer" class="shp10" d="M1302.13 605.17C1302.13 605.17 1288.44 590.51 1274.11 599.51C1274.11 599.51 1289.82 611.81 1302.13 605.17Z" />
			<path id="Layer" class="shp10" d="M1268.94 576.81C1268.94 576.81 1274.02 591.28 1260.77 610.19C1260.77 610.19 1253.04 594.59 1268.94 576.81Z" />
			<path id="Layer" class="shp11" d="M1287.23 614.65C1287.23 614.65 1267.31 602.27 1255.18 615.42C1255.18 615.42 1277.09 624.39 1287.23 614.65Z" />
			<path id="Layer" class="shp11" d="M1251.88 593.35C1251.88 593.35 1257.6 605.92 1246.3 624.77C1246.3 624.77 1238.32 614.78 1251.88 593.35Z" />
			<path id="Layer" class="shp10" d="M1271.01 625.32C1271.01 625.32 1250.63 615.86 1240.1 631.35C1240.1 631.35 1256.7 638.67 1271.01 625.32Z" />
		</g>
		<g id="Layer">
			<path id="Layer" class="shp12" d="M717.47 408.31C717.47 408.31 841.64 432.43 863.32 411.42C878.21 396.99 870.41 350.87 864.05 323.38C861.18 310.93 849.96 302.23 837.2 302.61C799.46 303.72 723.37 307.43 706.34 319.32C683.48 335.29 701.39 405.47 717.47 408.31Z" />
			<path id="Layer" class="shp13" d="M863.32 411.42C870.49 404.47 872.4 390.17 871.74 374.15C835.48 360.66 759.42 375.88 734.63 381.66C704.37 388.72 717.47 408.31 717.47 408.31C717.47 408.31 841.64 432.43 863.32 411.42Z" />
			<path id="Layer" class="shp14" d="M786.37 372.2C786.37 372.2 772.87 338.34 777.86 305.7C782.84 273.05 842.61 283.86 850.76 290.71C858.91 297.56 872.12 322.6 871.74 374.15C871.74 374.15 845.55 360.43 786.37 372.2Z" />
			<path id="Layer" class="shp15" d="M699.18 328.49C699.18 328.49 700.57 390.12 714.92 396.12C729.27 402.12 814.59 400 814.59 400" />
			<path id="Layer" class="shp16" d="M820.09 369.02C820.09 369.02 808.36 407.58 819.13 420C829.9 432.41 858.55 428.18 867.4 413.52C876.25 398.87 871.74 374.15 871.74 374.15C871.74 374.15 857.59 362.02 820.09 369.02Z" />
			<path id="Layer" class="shp15" d="M817.64 417.87C817.64 417.87 817.83 399.66 820.56 385.78C821.83 379.31 827.18 374.41 833.75 373.8C838.87 373.32 846.1 373.73 856.09 376.3" />
			<path id="Layer" class="shp17" d="M855.92 413.82C852.91 413.82 850.48 411.38 850.48 408.38C850.48 405.37 852.91 402.94 855.92 402.94C858.93 402.94 861.36 405.37 861.36 408.38C861.36 411.38 858.93 413.82 855.92 413.82Z" />
			<path id="Layer" class="shp16" d="M691.3 379.66C691.3 379.66 703.08 385.33 704.63 383.84L703.67 390.88C703.67 390.88 692.88 392.12 691.3 379.66Z" />
			<path id="Layer" class="shp16" d="M692.17 361.95C692.17 361.95 689.9 353.44 696.97 347.74C696.97 347.74 699.2 352.87 697.52 355.37C695.84 357.87 692.17 361.95 692.17 361.95Z" />
			<path id="Layer" class="shp15" d="M817.46 288L823.18 336.57" />
			<path id="Layer" class="shp15" d="M779.09 300.92C779.09 300.92 779.55 324.65 783.78 342.18C786.13 351.94 794.44 359.13 804.44 359.94C813.92 360.72 828.33 360.5 848.63 356.75" />
			<path id="Layer" class="shp12" d="M691.9 354.91C691.9 354.91 679.25 378.04 692.47 385.92C701.66 391.4 692.07 374.82 694.06 367.47C696.06 360.11 691.9 354.91 691.9 354.91Z" />
			<path id="Layer" class="shp17" d="M749.09 350.94L746.64 331.62C746.29 328.9 743.81 326.98 741.1 327.33L729.32 328.82C726.6 329.16 724.68 331.65 725.02 334.36L727.47 353.68C727.81 356.4 730.29 358.32 733.01 357.98L744.79 356.48C747.51 356.14 749.43 353.66 749.09 350.94Z" />
		</g>
		<g id="Layer">
			<path id="Layer" class="shp18" d="M1197.03 153.9L1203.51 157.09L1201.83 160.5L1195.35 157.31L1197.03 153.9Z" />
			<path id="Layer" class="shp18" d="M1204.42 158.75L1195.2 154.21L1195.29 154.04C1196.54 151.5 1199.62 150.45 1202.16 151.71L1202.16 151.71C1204.71 152.96 1205.75 156.04 1204.5 158.58L1204.42 158.75Z" />
			<path id="Layer" class="shp18" d="M1089.76 326.42L1131.73 347.1L1128.37 353.93L1086.4 333.25L1089.76 326.42Z" />
			<path id="Layer" class="shp19" d="M1099.79 325L1126.75 338.29L1124.23 343.4L1097.27 330.12L1099.79 325Z" />
			<path id="Layer" class="shp20" d="M1126.24 332.49L1104.74 321.9L1099.82 324.99L1126.78 338.27L1126.24 332.49Z" />
			<path id="Layer" class="shp18" d="M1123.82 303.9L1129.62 306.75L1123.64 318.9L1117.84 316.04L1123.82 303.9Z" />
			<path id="Layer" class="shp19" d="M1121.25 316.46L1121.25 316.46C1117.95 314.84 1113.96 316.19 1112.33 319.49L1109.9 324.44L1121.84 330.32L1124.28 325.38C1125.9 322.08 1124.55 318.09 1121.25 316.46Z" />
			<path id="Layer" class="shp18" d="M1165.07 222.03L1168.98 223.95L1132.25 298.52L1128.34 296.6L1165.07 222.03Z" />
			<path id="Layer" class="shp20" d="M1126 314.56L1120.2 311.7C1119.16 311.19 1118.74 309.94 1119.25 308.9L1119.25 308.9C1119.76 307.87 1121.01 307.44 1122.05 307.95L1127.85 310.81C1128.89 311.32 1129.31 312.57 1128.8 313.61L1128.8 313.61C1128.29 314.65 1127.04 315.07 1126 314.56Z" />
			<path id="Layer" class="shp20" d="M1128.03 307.5L1124.02 305.53C1122.2 304.63 1121.65 302.31 1122.9 300.74L1128.46 293.72L1134.7 296.79L1132.52 305.48C1132.03 307.42 1129.86 308.4 1128.03 307.5Z" />
			<path id="Layer" class="shp20" d="M1166.01 225.07L1166.01 225.07C1164.22 224.19 1163.48 222.03 1164.37 220.24L1166.47 215.97L1172.95 219.16L1170.85 223.43C1169.97 225.22 1167.8 225.96 1166.01 225.07Z" />
			<path id="Layer" class="shp18" d="M1166.09 214.11L1174.62 218.31L1173.95 219.68L1165.42 215.47L1166.09 214.11Z" />
			<path id="Layer" class="shp18" d="M1180.08 215.89L1164.72 208.32L1165.2 202.19L1184.65 211.78L1180.08 215.89Z" />
			<path id="Layer" class="shp18" d="M1173.97 217.97L1166.8 214.44L1167.79 209.84L1177.01 214.38L1173.97 217.97Z" />
			<path id="Layer" class="shp21" d="M1175.57 171.68C1175.06 172.7 1165.2 202.2 1165.2 202.2L1184.65 211.78L1202.87 185.13L1188.86 175.69L1175.57 171.68Z" />
			<path id="Layer" class="shp22" d="M1188.86 175.69L1173.73 206.4" />
			<path id="Layer" class="shp18" d="M1203.04 185.64L1175.4 172.02L1175.19 164.71L1209.31 181.52L1203.04 185.64Z" />
			<path id="Layer" class="shp20" d="M1207.5 176.6L1179.86 162.98L1175.19 164.71L1209.31 181.52L1207.5 176.6Z" />
			<path id="Layer" class="shp23" d="M1181.31 164.33L1181.31 164.33L1181.31 164.33L1181.31 164.33L1181.31 164.33Z" />
			<path id="Layer" class="shp19" d="M1201.18 158.43L1197.77 156.75C1191.17 153.5 1183.19 156.21 1179.94 162.81L1179.94 162.81L1207.24 176.26L1207.24 176.26C1210.49 169.66 1207.78 161.68 1201.18 158.43Z" />
			<path id="Layer" class="shp20" d="M1197.77 156.75C1197.65 156.69 1197.54 156.64 1197.42 156.59L1191.54 168.53L1195.3 170.38L1201.18 158.43L1197.77 156.75Z" />
		</g>
		<g id="Layer">
			<path id="Layer" class="shp18" d="M378.26 118.96L385.22 117L386.25 120.66L379.29 122.62L378.26 118.96Z" />
			<path id="Layer" class="shp18" d="M387.01 117.71L377.12 120.49L377.07 120.31C376.3 117.58 377.89 114.74 380.62 113.97L380.62 113.97C383.35 113.21 386.19 114.8 386.96 117.53L387.01 117.71Z" />
			<path id="Layer" class="shp18" d="M413.8 319L458.84 306.33L460.9 313.65L415.86 326.33L413.8 319Z" />
			<path id="Layer" class="shp19" d="M420.31 311.24L449.24 303.1L450.78 308.6L421.85 316.74L420.31 311.24Z" />
			<path id="Layer" class="shp20" d="M444.98 299.19L421.91 305.68L420.32 311.27L449.25 303.13L444.98 299.19Z" />
			<path id="Layer" class="shp18" d="M424.1 279.57L430.32 277.82L433.99 290.85L427.76 292.61L424.1 279.57Z" />
			<path id="Layer" class="shp19" d="M430.56 290.61L430.56 290.61C427.01 291.6 424.95 295.28 425.95 298.82L427.44 304.13L440.26 300.52L438.77 295.21C437.77 291.67 434.09 289.61 430.56 290.61Z" />
			<path id="Layer" class="shp18" d="M400 191.1L404.19 189.92L426.71 269.93L422.52 271.11L400 191.1Z" />
			<path id="Layer" class="shp20" d="M432.82 286.02L426.59 287.77C425.48 288.08 424.33 287.43 424.01 286.32L424.01 286.32C423.7 285.21 424.35 284.05 425.46 283.74L431.69 281.99C432.8 281.68 433.95 282.32 434.27 283.44L434.27 283.44C434.58 284.55 433.93 285.7 432.82 286.02Z" />
			<path id="Layer" class="shp20" d="M429.61 279.41L425.31 280.62C423.36 281.17 421.4 279.81 421.27 277.81L420.72 268.87L427.41 266.99L431.6 274.9C432.53 276.67 431.57 278.86 429.61 279.41Z" />
			<path id="Layer" class="shp20" d="M402.77 192.71L402.77 192.71C400.85 193.25 398.85 192.13 398.31 190.21L397.02 185.63L403.98 183.68L405.27 188.25C405.81 190.17 404.69 192.17 402.77 192.71Z" />
			<path id="Layer" class="shp18" d="M395.5 184.46L404.66 181.88L405.07 183.35L395.91 185.92L395.5 184.46Z" />
			<path id="Layer" class="shp18" d="M407.1 176.48L390.62 181.11L386.87 176.24L407.75 170.37L407.1 176.48Z" />
			<path id="Layer" class="shp18" d="M403.94 182.11L396.25 184.27L393.91 180.19L403.8 177.4L403.94 182.11Z" />
			<path id="Layer" class="shp21" d="M374.19 146.61C374.5 147.71 386.87 176.24 386.87 176.24L407.75 170.36L403.49 138.36L386.76 140.7L374.19 146.61Z" />
			<path id="Layer" class="shp22" d="M386.76 140.7L396.03 173.66" />
			<path id="Layer" class="shp18" d="M403.96 138.63L374.29 146.97L369.25 141.68L405.87 131.37L403.96 138.63Z" />
			<path id="Layer" class="shp20" d="M401.23 128.93L371.56 137.27L369.25 141.68L405.87 131.37L401.23 128.93Z" />
			<path id="Layer" class="shp23" d="M373.55 137.3L373.55 137.3L373.55 137.3L373.55 137.3L373.55 137.3Z" />
			<path id="Layer" class="shp19" d="M384.39 119.63L380.73 120.66C373.65 122.65 369.52 130.01 371.51 137.09L371.51 137.09L400.81 128.84L400.81 128.84C398.82 121.77 391.47 117.64 384.39 119.63Z" />
			<path id="Layer" class="shp20" d="M380.73 120.66C380.6 120.7 380.48 120.74 380.36 120.78L383.97 133.58L387.99 132.45L384.39 119.63L380.73 120.66Z" />
		</g>
		<g id="Layer">
			<g id="Layer">
				<path id="Layer" class="shp24" d="M642.61 486.15L570.74 444.5L575.16 445.24L647.03 486.88L642.61 486.15Z" />
			</g>
			<g id="Layer">
				<path id="Layer" class="shp25" d="M642.61 486.15L647.03 486.88L621.03 567.64L620.85 568.2L620.65 568.83C620.29 569.96 619.41 570.82 618.48 571.09C618.18 571.18 617.87 571.2 617.57 571.15C617.25 571.1 616.97 570.97 616.75 570.77C616.11 570.22 615.88 569.19 616.23 568.1L617.1 565.39L642.61 486.15Z" />
			</g>
			<g id="Layer">
				<path id="Layer" class="shp26" d="M617.1 565.39L545.23 523.74L570.74 444.5L642.61 486.15L617.1 565.39Z" />
			</g>
			<g id="Layer">
				<path id="Layer" class="shp27" d="M615.37 560.88L548.86 522.34L572.47 449.01L638.97 487.55L615.37 560.88Z" />
			</g>
			<g id="Layer">
				<path id="Layer" class="shp25" d="M617.1 565.39L616.23 568.1C615.88 569.19 616.11 570.22 616.75 570.77L546.48 590.99L546.4 585.73L617.1 565.39Z" />
			</g>
			<g id="Layer">
				<path id="Layer" class="shp26" d="M546.48 590.99L474.61 549.34L474.53 544.08L546.4 585.73L546.48 590.99Z" />
			</g>
			<g id="Layer">
				<path id="Layer" class="shp24" d="M546.4 585.73L474.53 544.08L545.23 523.74L617.1 565.39L546.4 585.73Z" />
			</g>
			<g id="Layer">
				<path id="Layer" class="shp28" d="M548.97 579.63L488.07 544.34L547.98 527.1L608.88 562.4L548.97 579.63Z" />
			</g>
		</g>
		<g id="Layer">
			<path id="Layer" class="shp29" d="M244.6 643.54C244.6 643.54 232.97 634.58 218.89 611.76C206.45 591.6 153.5 567.86 99.55 571.42C99.55 571.42 102.83 658.7 209.82 645.89C218.47 644.85 233.42 638.81 244.6 643.54Z" />
			<path id="Layer" class="shp30" d="M102.66 573.33C102.66 573.33 169.98 619.79 239.58 641.62" />
			<path id="Layer" class="shp30" d="M106.11 591.06C106.11 591.06 120.96 593.34 131.53 591.51" />
			<path id="Layer" class="shp30" d="M111.38 604.1C111.38 604.1 139.49 606.04 151.39 603.22" />
			<path id="Layer" class="shp30" d="M123.5 621.45C123.5 621.45 154.56 624.27 170.12 612.69" />
			<path id="Layer" class="shp30" d="M143.95 636.48C143.95 636.48 179.14 633.74 185 619.96" />
			<path id="Layer" class="shp30" d="M168.92 644.2C168.92 644.2 190.47 646.79 203.6 628.28" />
			<path id="Layer" class="shp30" d="M202.41 645.03C202.41 645.03 212.14 643.3 217.01 633.7" />
			<path id="Layer" class="shp30" d="M122.68 573.27C122.68 573.27 130.37 583.4 129.99 590.59" />
			<path id="Layer" class="shp30" d="M149.89 576.96C149.89 576.96 155.37 592.53 150.22 602.18" />
			<path id="Layer" class="shp30" d="M166.23 581.26C166.23 581.26 173.72 599.59 168.56 611.9" />
			<path id="Layer" class="shp30" d="M189.72 590.7C189.72 590.7 190.75 610.72 183.74 619.37" />
			<path id="Layer" class="shp30" d="M200.65 596.96C200.65 596.96 207.36 615.41 202.01 627.6" />
			<path id="Layer" class="shp30" d="M216.64 611.85C216.64 611.85 220.35 620.88 215.62 633.17" />
		</g>
		<g id="Layer">
			<path id="Layer" class="shp9" d="M155.91 511.49C155.91 511.49 163.79 582.36 237.32 653.46" />
			<path id="Layer" class="shp10" d="M156.59 515.78C156.59 515.78 129.39 487.02 139.34 460.07C139.34 460.07 165.39 493.26 156.59 515.78Z" />
			<path id="Layer" class="shp11" d="M164.35 543.72C164.35 543.72 146.77 512.81 115.34 512.74C115.34 512.74 136.99 538.94 164.35 543.72Z" />
			<path id="Layer" class="shp10" d="M186.86 507.42C186.86 507.42 158.05 523.21 166.53 549.58C166.53 549.58 192.4 529.63 186.86 507.42Z" />
			<path id="Layer" class="shp10" d="M128.44 548.6C128.44 548.6 153.44 546.39 178.07 575.06C178.07 575.06 150.21 581.01 128.44 548.6Z" />
			<path id="Layer" class="shp11" d="M195.86 534.89C195.86 534.89 168.16 561.49 184.11 586.04C184.1 586.04 207.21 554.93 195.86 534.89Z" />
			<path id="Layer" class="shp11" d="M147.77 582.36C147.77 582.36 170.01 578.36 195.35 603.91C195.35 603.91 176.27 612.53 147.77 582.36Z" />
			<path id="Layer" class="shp10" d="M206.21 564.95C206.21 564.95 182.96 593.44 203.27 616.41C203.27 616.41 221.61 593.04 206.21 564.95Z" />
		</g>
		<g id="Layer">
			<path id="Layer" class="shp31" d="M317.94 543.44L392.35 521.14L447.69 504.56C448.32 504.37 448.97 504.21 449.62 504.1C458.55 502.41 467.53 507.52 470.54 516.3C473.64 525.32 469.4 535.2 460.74 539.18L459 539.98L367.49 596.81C356.12 603.88 342.49 606.38 329.35 603.81L318 601.59L317.94 543.44Z" />
			<path id="Layer" class="shp31" d="M466.48 501.7C472.37 502.93 477.59 507.06 479.88 513.25L526.75 640.17L534.16 660.25L522.57 664.86L510.71 643.51L450.57 535.2L446.81 528.43C445.72 526.47 445.02 524.39 444.71 522.3C443.61 515.08 446.94 507.62 453.64 503.76C457.72 501.41 462.27 500.82 466.48 501.7Z" />
			<path id="Layer" class="shp31" d="M534.16 660.25L550.37 667.25L522.37 671L522.36 664.83L534.16 660.25Z" />
			<path id="Layer" class="shp32" d="M415.44 517.11L351.84 441.35C342.87 430.67 345.27 414.55 356.96 406.94L356.96 406.94C368.36 399.51 383.68 403.43 390.11 415.43L436.86 502.6C440.07 508.59 438.13 516.03 432.42 519.69L432.42 519.69C426.92 523.23 419.64 522.12 415.44 517.11Z" />
			<path id="Layer" class="shp32" d="M519.29 502.31L427.73 521.65C420.63 523.15 413.7 518.47 412.44 511.32L412.44 511.32C411.11 503.83 416.56 496.83 424.15 496.29L517.62 489.56L519.29 502.31Z" />
			<path id="Layer" class="shp33" d="M516.57 491.04C516.57 491.04 522.26 483.76 526.57 483.54C530.88 483.32 526.73 489.41 526.73 489.41C526.73 489.41 543.13 485.24 543.41 492.8C543.69 500.36 528.68 504.83 518.3 501.88L516.57 491.04Z" />
			<path id="Layer" class="shp34" d="M259.3 397.29L364.91 402.42C375.9 402.95 384.27 412.5 383.33 423.47C380.68 454.36 374.12 514.99 360.45 562.92C360.45 562.92 332.04 570.64 310.87 569.61C292.73 568.73 268.18 551.83 268.18 551.83C254.15 466.27 259.3 397.29 259.3 397.29Z" />
			<path id="Layer" class="shp35" d="M421.01 525.98C424.04 535.01 419.71 544.87 411.02 548.77L409.22 549.57L366.46 568.74L320.68 599.97C303.24 611.86 279.31 602.37 274.77 581.76L268.18 551.83L294.17 544.28L398.26 514.04C400.49 513.39 402.76 513.18 404.94 513.37C412.13 513.96 418.59 518.74 421.01 525.98Z" />
			<path id="Layer" class="shp35" d="M494.22 662.93L483.09 668.59L470.78 650.59L394.98 539.79C394.66 539.32 394.36 538.83 394.11 538.34C392.82 536.07 392.1 533.62 391.87 531.15C391.3 524.88 394 518.48 399.5 514.59C407.95 508.61 419.43 510.9 425.08 519.11C425.62 519.89 426.1 520.72 426.52 521.6L485.55 644.85L494.22 662.93Z" />
			<path id="Layer" class="shp31" d="M494.21 662.93L511 668.39L483.46 674.73L482.88 668.58L494.21 662.93Z" />
			<path id="Layer" class="shp36" d="M276.39 507.02C276.39 507.02 283.37 500.98 287.64 501.59C291.92 502.2 286.67 507.38 286.67 507.38C286.67 507.38 303.57 506.44 302.39 513.91C301.21 521.39 285.62 522.88 276 517.99L276.39 507.02Z" />
			<path id="Layer" class="shp36" d="M328.41 423.46L308.85 400.25L314.91 379.89L337.81 386.7L328.41 423.46Z" />
			<path id="Layer" class="shp37" d="M351.76 369.5C351.19 381.61 346.41 399.46 336.81 396.61C327.2 393.75 309.05 377.86 312.56 366.03C316.08 354.21 326.72 346.93 336.33 349.79C345.93 352.64 352.35 357.18 351.76 369.5Z" />
			<path id="Layer" class="shp38" d="M332.13 367.08C332.13 367.08 360.5 367.97 357.99 355.85C355.47 343.74 337.15 335.85 320.96 344.61C320.96 344.61 291.49 354.2 312.96 386.44C312.96 386.44 329.92 386.13 332.13 367.08Z" />
			<path id="Layer" class="shp37" d="M328.03 372.81C328.03 372.81 325.07 363.68 320.87 367.63C316.67 371.58 321.23 382.27 324.74 382.87L328.03 372.81Z" />
			<path id="Layer" class="shp17" d="M336.42 382.44L346.35 386.26C346.35 386.26 343.46 389.5 341.69 388.88C339.92 388.25 336.06 384.5 336.42 382.44Z" />
			<path id="Layer" class="shp17" d="M328.41 423.46L303.42 399.44L309.38 397.51L328.41 423.46Z" />
			<path id="Layer" class="shp17" d="M328.41 423.46L334.62 399.18L333.93 418.13L328.41 423.46Z" />
			<path id="Layer" class="shp17" d="M309.09 422.04L316.79 412.29L303.42 399.45L309.09 422.04Z" />
			<path id="Layer" class="shp17" d="M333.93 418.13L337.17 424.04C337.17 424.04 339.14 406.58 334.59 399.96L333.93 418.13Z" />
			<path id="Layer" class="shp32" d="M195.23 499.65L273.43 439.08C284.46 430.54 285.53 414.27 275.72 404.36L275.72 404.36C266.14 394.69 250.34 395.28 241.52 405.64L177.37 480.94C172.97 486.1 173.28 493.79 178.08 498.58L178.08 498.58C182.72 503.2 190.06 503.66 195.23 499.65Z" />
			<path id="Layer" class="shp32" d="M279.81 506.34L190.76 477.58C183.85 475.35 176.47 479.28 174.48 486.26L174.48 486.26C172.38 493.58 177.07 501.1 184.57 502.43L276.82 518.85L279.81 506.34Z" />
			<path id="Layer" class="shp37" d="M347.46 371.38C347.46 371.38 354.75 377.36 353.88 385.86C353.88 385.86 347.7 385.66 346.99 383.04C346.27 380.42 347.46 371.38 347.46 371.38Z" />
		</g>
		<g id="Layer">
			<path id="Layer" class="shp39" d="M517.62 388.38L517.35 377.12L549.7 372.1L656.38 355.52C659.45 355.05 662.46 355.45 665.15 356.56C670.22 358.64 674.12 363.21 675.11 369C676.85 379.05 669.11 388.23 658.91 388.25L550.93 388.35L517.62 388.38Z" />
			<path id="Layer" class="shp39" d="M675.07 374.45L675.07 374.45C677.09 365.7 671.85 356.92 663.19 354.56L528.74 316.23L510.21 364.42L656.65 387.26C665.17 388.35 673.13 382.81 675.07 374.45Z" />
			<path id="Layer" class="shp40" d="M508.62 384.21L492.76 382.79L515.69 371.68L517.43 376.96L508.62 384.21Z" />
			<path id="Layer" class="shp41" d="M592.22 392.65C592.63 394.08 592.86 395.59 592.86 397.15C592.87 407.34 583.71 415.1 573.65 413.4L480.86 397.68L434.35 389.79L435.96 378.66L481.24 379.32L576.64 380.71C584.07 380.82 590.27 385.84 592.22 392.65Z" />
			<path id="Layer" class="shp41" d="M590.99 405.23L590.99 405.23C595.45 397.44 592.97 387.52 585.37 382.75L527.37 328.33L481.92 317.85L480.69 319.9C467.35 342.1 476.5 370.97 500.19 381.45L569.65 412.16C577.49 415.68 586.71 412.68 590.99 405.23Z" />
			<path id="Layer" class="shp36" d="M434.35 389.8L421.6 399.33L431.25 375.75L436.08 378.51L434.35 389.8Z" />
			<path id="Layer" class="shp42" d="M558.32 161.85C558.32 161.85 557.89 183.46 560.04 190.5C560.04 190.5 548.43 189.97 547.06 188.63C545.69 187.3 548.88 165.18 558.32 161.85Z" />
			<path id="Layer" class="shp33" d="M607.23 301.07L555.37 228.51C548.06 218.28 551.35 203.96 562.39 197.94L562.39 197.94C573.16 192.06 586.65 196.66 591.59 207.89L627.5 289.53C629.96 295.13 627.7 301.69 622.31 304.58L622.31 304.58C617.12 307.37 610.65 305.87 607.23 301.07Z" />
			<path id="Layer" class="shp43" d="M591.59 207.89C586.65 196.66 573.16 192.06 562.39 197.94L562.39 197.94C551.35 203.96 548.06 218.28 555.37 228.51L583.12 267.34C593.21 266.51 606.57 257.99 610.41 250.68L591.59 207.89Z" />
			<path id="Layer" class="shp33" d="M696.28 262.43L623.29 304.74C617.63 308.03 610.37 305.96 607.28 300.2L607.28 300.2C604.04 294.15 606.74 286.63 613.09 284.02L691.26 251.97L696.28 262.43Z" />
			<path id="Layer" class="shp33" d="M690.49 251.89C690.49 251.89 697.65 247.65 701.35 248.87C705.04 250.1 699.56 253.86 699.56 253.86C699.56 253.86 714.71 255.72 712.46 262.16C710.22 268.61 696.15 267.44 688.4 261.57L690.49 251.89Z" />
			<path id="Layer" class="shp44" d="M494.23 276.07L484.04 212.67C481.78 198.61 493.55 186.28 507.69 187.89L574.26 195.45C584.12 196.57 591.09 205.64 589.61 215.46C589.12 218.67 587.49 223.7 585.19 229.71C585.27 234.34 586.53 240.12 587.25 243.62C589.81 256.11 584.66 260.47 573.7 262.63C572.69 262.83 571.68 262.93 570.68 262.97C562.32 280.84 554.37 296.5 554.37 296.5L562.73 325.92C562.73 325.92 553.4 349.43 515.92 342.72C499.8 339.84 474.53 330.55 474.53 330.55L494.23 276.07Z" />
			<path id="Layer" class="shp37" d="M448.52 281.48L485.04 200.12C490.19 188.65 500.26 191.1 511.03 197.6L512.32 195.37C522.82 201.72 524.15 209.52 521.11 221.01L468.7 293.18C465.11 298.13 458.31 299.48 453.09 296.28L453.09 296.28C448.06 293.2 446.1 286.86 448.52 281.48Z" />
			<path id="Layer" class="shp37" d="M543.46 298.28L459.09 298.56C452.55 298.58 447.29 293.18 447.48 286.64L447.48 286.64C447.69 279.78 453.78 274.61 460.59 275.52L544.32 286.71L543.46 298.28Z" />
			<path id="Layer" class="shp37" d="M543.02 287.58C543.02 287.58 550.21 283.38 553.89 284.63C557.58 285.88 552.07 289.61 552.07 289.61C552.07 289.61 567.21 291.58 564.92 298C562.63 304.43 548.57 303.17 540.86 297.24L543.02 287.58Z" />
			<path id="Layer" class="shp36" d="M551.43 214.7L529.9 191.01L529.92 171.86L551.46 171.88L551.43 214.7Z" />
			<path id="Layer" class="shp37" d="M559.12 153.44C561.73 164.05 558.51 181.45 553.13 180.7C548.46 180.05 527.36 174 527.37 162.87C527.38 151.74 531.68 140.34 540.72 140.35C549.75 140.36 556.46 142.63 559.12 153.44Z" />
			<path id="Layer" class="shp17" d="M549.69 170.34L556.46 170.87C556.46 170.87 555.27 173.38 554.08 173.32C552.88 173.26 549.84 171.66 549.69 170.34Z" />
			<path id="Layer" class="shp42" d="M543.32 157.21C543.32 157.21 552.08 157.16 560.66 158.02C564.72 158.42 565.22 131.53 538.94 135.47C538.94 135.47 496.67 135.07 529.9 188.63C529.9 188.63 546.63 179.83 543.32 157.21Z" />
			<path id="Layer" class="shp42" d="M521.97 141.96C521.97 141.96 505.65 160.5 518.44 185.47L529.9 188.63L521.97 141.96Z" />
			<path id="Layer" class="shp44" d="M514.99 190.77L514.99 190.77C504.22 184.27 490.19 188.65 485.04 200.12L466.63 241.13L466.63 241.13C466.63 241.13 469.09 257.94 492.39 260.55L492.39 260.55L521.11 221.01C528.32 211.08 525.49 197.11 514.99 190.77Z" />
			<path id="Layer" class="shp37" d="M558.13 160L562.73 168.38L557.5 169.25L558.13 160Z" />
		</g>
		<g id="Layer">
			<path id="Layer" class="shp44" d="M337.52 697.31C337.52 697.31 217.1 686.66 202.73 661.63C192.87 644.45 212.22 604.15 225.32 580.57C231.25 569.9 243.86 564.87 255.48 568.59C289.85 579.59 358.76 603.09 371.26 618.51C388.04 639.22 353.04 698.95 337.52 697.31Z" />
			<path id="Layer" class="shp45" d="M202.74 661.63C197.99 653.36 200.01 639.72 204.85 625.17C241.72 622.37 307.56 656.44 328.8 668.3C354.73 682.78 337.53 697.31 337.53 697.31C337.53 697.31 217.1 686.66 202.74 661.63Z" />
			<path id="Layer" class="shp46" d="M315.11 657.07C315.11 657.07 271.76 635.86 286.44 608C301.12 580.13 337.01 598.32 337.01 598.32" />
			<path id="Layer" class="shp17" d="M301.54 623.31C297.19 623.31 293.66 619.79 293.66 615.43C293.66 611.07 297.19 607.54 301.54 607.54C305.9 607.54 309.43 611.07 309.43 615.43C309.43 619.79 305.9 623.31 301.54 623.31Z" />
			<path id="Layer" class="shp15" d="M375.41 628.83C375.41 628.83 357.86 685.07 343.09 686.79C328.32 688.51 250.51 664.02 250.51 664.02" />
			<path id="Layer" class="shp47" d="M253.65 634.11C253.65 634.11 254.23 672.63 241.06 681.19C227.89 689.75 202.69 678.29 198.43 662.49C194.17 646.69 204.85 625.18 204.85 625.18C204.85 625.18 221.05 617.78 253.65 634.11Z" />
			<path id="Layer" class="shp15" d="M242.99 679.63C242.99 679.63 247.62 662.85 248.78 649.38C249.33 643.11 245.71 637.18 239.84 634.89C235.26 633.1 228.51 631.56 218.66 631.28" />
			<path id="Layer" class="shp17" d="M210.34 665.99C207.46 665.99 205.14 663.67 205.14 660.8C205.14 657.92 207.46 655.6 210.34 655.6C213.21 655.6 215.54 657.92 215.54 660.8C215.54 663.67 213.21 665.99 210.34 665.99Z" />
			<path id="Layer" class="shp47" d="M369.13 677.92C369.13 677.92 356.82 680.01 355.78 678.23L354.81 684.96C354.81 684.96 364.39 688.94 369.13 677.92Z" />
			<path id="Layer" class="shp47" d="M373.02 661.42C373.02 661.42 377.35 654.2 372.36 647.1C372.36 647.1 368.96 651.21 369.84 653.96C370.72 656.7 373.02 661.42 373.02 661.42Z" />
			<path id="Layer" class="shp45" d="M375.12 655.02C375.12 655.02 380.63 679.61 366.41 683.36C356.52 685.96 369.71 673.26 369.82 665.98C369.93 658.7 375.12 655.02 375.12 655.02Z" />
		</g>
		<g id="Layer">
			<path id="Layer" class="shp48" d="M818.39 413.28L917.95 356.13C931.99 348.08 935.81 329.55 926.11 316.59L926.11 316.59C916.65 303.95 898.4 302.11 886.6 312.61L800.85 388.92C794.96 394.16 794.1 403.04 798.86 409.31L798.86 409.31C803.45 415.36 811.81 417.06 818.39 413.28Z" />
			<path id="Layer" class="shp48" d="M702.41 388.17L807.59 415.18C815.75 417.27 824.02 412.19 825.84 403.97L825.84 403.97C827.75 395.34 821.78 386.97 813.01 385.95L704.99 373.46L702.41 388.17Z" />
			<path id="Layer" class="shp48" d="M706.13 375.23C706.13 375.23 699.9 366.51 694.91 366.04C689.93 365.56 694.43 372.84 694.43 372.84C694.43 372.84 675.62 367.18 674.92 375.93C674.22 384.68 691.39 390.61 703.58 387.72L706.13 375.23Z" />
			<path id="Layer" class="shp49" d="M901.61 303.92C901.61 303.92 891.03 301.25 846.97 347.88C846.97 347.88 850.9 382.51 875.9 392.51C875.9 392.51 921.67 368.84 923.78 346.84C925.9 324.84 934.31 298.99 901.61 303.92Z" />
			<path id="Layer" class="shp50" d="M1016.01 602.29L1016.01 602.29C1004.55 600.8 996.32 590.54 997.35 579.03L1011.36 422.47L1077.81 421.76L1039.73 585.82C1037.23 596.59 1026.97 603.71 1016.01 602.29Z" />
			<path id="Layer" class="shp50" d="M1194.68 687.49L1170.86 687.49L1008.02 606.56C996.26 600.72 992.6 585.7 1000.34 575.1L1000.34 575.1C1007.16 565.76 1020.21 563.62 1029.66 570.28L1194.68 687.49Z" />
			<path id="Layer" class="shp51" d="M1179 684.38L1161.92 695.69L1194.68 694.24L1193.42 687.18L1179 684.38Z" />
			<path id="Layer" class="shp50" d="M851.13 517.98L851.13 517.98C845.85 507.7 849.63 495.09 859.68 489.41L996.56 412.13L1034.85 466.43L878.15 528.16C867.86 532.22 856.18 527.81 851.13 517.98Z" />
			<path id="Layer" class="shp50" d="M841.55 691.86L827.18 690.04L845.76 509.14C847.11 496.08 859.88 487.38 872.52 490.9L872.52 490.9C883.66 494 890.25 505.47 887.33 516.66L841.55 691.86Z" />
			<path id="Layer" class="shp51" d="M827.18 690.04L810.98 702.58L843.54 698.72L841.77 691.77L827.18 690.04Z" />
			<path id="Layer" class="shp49" d="M1022.62 279.5C1037.85 310.41 1060.54 361.18 1077.56 419.75C1077.56 419.75 1033.69 446.9 1012.72 449.03C981.82 452.16 954.12 436.09 954.12 436.09C954.96 373.46 918.86 409.3 889.22 337.2C884.35 325.36 886.68 311.96 897.95 305.89L975.17 264.3C992.44 255.01 1013.96 261.9 1022.62 279.5Z" />
			<path id="Layer" class="shp52" d="M1035.68 402.15L1008.09 419.2C1008.09 419.2 1025.68 531.55 1116.43 494.28L1035.68 402.15Z" />
			<path id="Layer" class="shp51" d="M1035.68 402.15C1035.68 402.15 1056.18 486.51 1080.18 494.51C1104.18 502.51 1142.68 492.51 1138.18 464.51C1133.68 436.51 1091.68 381.06 1091.68 381.06C1091.68 381.06 1055.39 380.29 1035.68 402.15Z" />
			<path id="Layer" class="shp51" d="M918.01 295.08C918.01 295.08 959.24 377.97 1033.32 417.93C1039.55 421.29 1040.53 429.8 1035.15 434.39L1035.1 434.43C1031.81 437.24 1027.08 437.61 1023.39 435.36C1004.57 423.88 947.55 384.43 901.61 303.92C901.61 303.92 905.14 294.28 918.01 295.08Z" />
			<path id="Layer" class="shp53" d="M957.91 273.6L944.65 321.51L927.66 289.89L957.91 273.6Z" />
			<path id="Layer" class="shp54" d="M916.69 393.14L965.3 289.15C972.15 274.49 990.29 269.13 1004.01 277.71L1004.01 277.71C1017.41 286.08 1020.77 304.11 1011.3 316.75L942.43 408.59C937.71 414.89 928.93 416.5 922.28 412.28L922.28 412.28C915.87 408.21 913.47 400.02 916.69 393.14Z" />
			<path id="Layer" class="shp54" d="M827.72 439.3L922.48 386.25C929.82 382.13 939.12 384.92 942.99 392.4L942.99 392.4C947.04 400.25 943.42 409.88 935.2 413.11L833.98 452.85L827.72 439.3Z" />
			<path id="Layer" class="shp54" d="M831.77 439.29C831.77 439.29 822.45 434.01 817.73 435.68C813 437.35 820.15 442.05 820.15 442.05C820.15 442.05 800.71 444.84 803.76 453.07C806.81 461.3 824.89 459.44 834.71 451.69L831.77 439.29Z" />
			<path id="Layer" class="shp48" d="M943.41 314.57L954.96 277.52L943.27 255.82L918.86 268.97L943.41 314.57Z" />
			<path id="Layer" class="shp54" d="M898.95 252.72C902.45 266.34 912.1 285.5 922.34 279.98C932.58 274.47 949.46 252.13 942.66 239.52C935.87 226.91 922.07 221.16 911.83 226.67C901.6 232.19 895.38 238.85 898.95 252.72Z" />
			<path id="Layer" class="shp55" d="M920.68 245.33C920.68 245.33 878.81 260 878.81 222.2C878.81 200.11 899.63 221.05 928.07 217.16C940.31 215.49 963.82 221.11 947.03 262.8C947.03 262.8 927.69 266.46 920.68 245.33Z" />
			<path id="Layer" class="shp54" d="M923.78 254.16C923.78 254.16 924.13 243.03 930.09 246.07C936.05 249.11 934.43 262.5 930.71 264.31L923.78 254.16Z" />
			<path id="Layer" class="shp56" d="M917.23 262.43L910.06 272.48C910.06 272.48 914.94 273.76 916.25 272.02C917.56 270.28 918.9 264.19 917.23 262.43Z" />
			<path id="Layer" class="shp57" d="M945.92 330.6C945.92 330.6 966.73 357.06 989.73 360.54C989.73 360.54 1037.78 310.85 1008.22 280.95C968.73 241.01 945.92 330.6 945.92 330.6Z" />
			<path id="Layer" class="shp54" d="M900.48 255.82C900.48 255.82 904.23 270.01 900.48 271.26C900.48 271.26 906.86 273.97 908.86 267.68C910.86 261.38 900.48 255.82 900.48 255.82Z" />
			<path id="Layer" class="shp53" d="M1085.75 396.23C1092.48 394.67 1098.53 396.02 1099.28 399.25C1100.03 402.49 1095.2 406.36 1088.46 407.92C1081.73 409.49 1075.68 408.14 1074.93 404.91C1074.18 401.67 1079.02 397.8 1085.75 396.23Z" />
		</g>
		<path id="Layer" class="shp17" d="M411.8 332.93C411.8 332.93 403.67 321.44 401.42 310.51C401.42 310.51 402.64 323.89 405.13 327.91C407.62 331.94 395.34 316.29 392.63 313.64C392.63 313.64 401.91 325.21 399.3 332.42C399.3 332.42 393.94 315.15 387.12 311.07C387.12 311.07 391.28 328.75 395.7 335.22C395.7 335.22 390.33 328.53 383.55 323.16C383.55 323.16 387.44 333.3 391.95 336.55C391.95 336.55 383.9 331.88 378.51 320.71C378.51 320.71 377.37 328.9 381.87 334.37C381.87 334.37 374.7 329.9 371.63 313.28C371.63 313.28 369.24 322.84 374.7 329.9C374.7 329.9 370.59 321.32 364.19 319.22L373.14 350.71L394.43 348.3L411.8 332.93Z" />
		<path id="Layer" class="shp17" d="M244.92 391.93C244.92 391.93 236.79 380.44 234.55 369.51C234.55 369.51 235.76 382.88 238.25 386.91C240.74 390.93 228.46 375.28 225.75 372.63C225.75 372.63 235.04 384.2 232.43 391.42C232.43 391.42 227.07 374.15 220.24 370.06C220.24 370.06 224.4 387.75 228.82 394.21C228.82 394.21 223.45 387.53 216.67 382.16C216.67 382.16 220.57 392.3 225.07 395.55C225.07 395.55 217.02 390.88 211.63 379.7C211.63 379.7 210.49 387.89 215 393.37C215 393.37 207.83 388.9 204.75 372.27C204.75 372.27 202.36 381.84 207.83 388.9C207.83 388.9 203.72 380.32 197.31 378.21L206.26 409.7L227.55 407.3L244.92 391.93Z" />
		<path id="Layer" class="shp17" d="M1130.92 365.33C1130.92 365.33 1141.9 356.52 1147.06 346.62C1147.06 346.62 1142.22 359.14 1138.72 362.33C1135.22 365.52 1151.33 353.84 1154.66 352.04C1154.66 352.04 1142.55 360.62 1143.08 368.27C1143.08 368.27 1152.97 353.14 1160.66 351.08C1160.66 351.08 1151.81 366.95 1145.78 371.95C1145.78 371.95 1152.78 367 1160.77 363.69C1160.77 363.69 1154.24 372.37 1149.02 374.26C1149.02 374.26 1158.04 371.98 1166.29 362.71C1166.29 362.71 1165.14 370.9 1159.31 374.93C1159.31 374.93 1167.43 372.6 1174.95 357.46C1174.95 357.46 1174.62 367.31 1167.43 372.6C1167.43 372.6 1173.73 365.48 1180.47 365.22L1163.21 393.04L1143.41 384.88L1130.92 365.33Z" />
	</g>
</svg>